<svg xmlns="http://www.w3.org/2000/svg" width="587" height="587" viewBox="0 0 587 587" fill="none"><path d="M156 137C230 88.4754 331 64.3333 366 78C373 80.3764 422.402 98.3624 406 152C369 273 375 352 382 379C399.317 445.792 366 511.371 263 513C10 517 -26.9999 257 156 137Z" fill="#0F91CB" fill-opacity="0.15"></path><path d="M345.844 233.5H270.469C268.803 233.5 267.205 234.162 266.027 235.34C264.849 236.518 264.188 238.115 264.188 239.781C264.188 241.447 264.849 243.045 266.027 244.223C267.205 245.401 268.803 246.062 270.469 246.062H345.844C347.51 246.062 349.107 245.401 350.285 244.223C351.463 243.045 352.125 241.447 352.125 239.781C352.125 238.115 351.463 236.518 350.285 235.34C349.107 234.162 347.51 233.5 345.844 233.5Z" fill="#0F91CB"></path><path d="M270.469 283.75H295.594C297.26 283.75 298.857 283.088 300.035 281.91C301.213 280.732 301.875 279.135 301.875 277.469C301.875 275.803 301.213 274.205 300.035 273.027C298.857 271.849 297.26 271.188 295.594 271.188H270.469C268.803 271.188 267.205 271.849 266.027 273.027C264.849 274.205 264.188 275.803 264.188 277.469C264.188 279.135 264.849 280.732 266.027 281.91C267.205 283.088 268.803 283.75 270.469 283.75Z" fill="#0F91CB"></path><path d="M433.781 418.797C432.115 418.797 430.518 419.459 429.34 420.637C428.162 421.815 427.5 423.412 427.5 425.078V472.188H239.062V233.5C239.062 224.216 235.615 215.262 229.389 208.375H402.375C409.039 208.375 415.429 211.022 420.141 215.734C424.853 220.446 427.5 226.836 427.5 233.5V264.906C427.5 266.572 428.162 268.17 429.34 269.348C430.518 270.526 432.115 271.188 433.781 271.188C435.447 271.188 437.045 270.526 438.223 269.348C439.401 268.17 440.062 266.572 440.062 264.906V233.5C440.062 223.505 436.092 213.919 429.024 206.851C421.956 199.783 412.37 195.812 402.375 195.812H201.375C191.38 195.812 181.794 199.783 174.726 206.851C167.658 213.919 163.688 223.505 163.688 233.5V290.031C163.688 291.697 164.349 293.295 165.527 294.473C166.705 295.651 168.303 296.312 169.969 296.312H226.5V478.469C226.5 480.135 227.162 481.732 228.34 482.91C229.518 484.088 231.115 484.75 232.781 484.75H433.781C435.447 484.75 437.045 484.088 438.223 482.91C439.401 481.732 440.062 480.135 440.062 478.469V425.078C440.062 423.412 439.401 421.815 438.223 420.637C437.045 419.459 435.447 418.797 433.781 418.797ZM176.25 233.5C176.25 226.836 178.897 220.446 183.609 215.734C188.321 211.022 194.711 208.375 201.375 208.375C208.039 208.375 214.429 211.022 219.141 215.734C223.853 220.446 226.5 226.836 226.5 233.5V283.75H176.25V233.5Z" fill="#0F91CB"></path><path d="M270.469 434.5C268.803 434.5 267.205 435.162 266.027 436.34C264.849 437.518 264.188 439.115 264.188 440.781C264.188 442.447 264.849 444.045 266.027 445.223C267.205 446.401 268.803 447.062 270.469 447.062H311.297C312.963 447.062 314.56 446.401 315.738 445.223C316.916 444.045 317.578 442.447 317.578 440.781C317.578 439.115 316.916 437.518 315.738 436.34C314.56 435.162 312.963 434.5 311.297 434.5H270.469Z" fill="#0F91CB"></path><path d="M501.022 320.621L456.582 276.181C455.405 275.011 453.813 274.355 452.154 274.355C450.495 274.355 448.903 275.011 447.726 276.181L349.989 373.917C349.246 374.676 348.696 375.602 348.388 376.618L330.643 438.803C330.314 439.896 330.289 441.059 330.571 442.166C330.853 443.273 331.432 444.282 332.245 445.084C333.418 446.263 335.01 446.93 336.673 446.937C337.258 446.93 337.839 446.846 338.401 446.686L400.585 428.941C401.606 428.644 402.536 428.093 403.286 427.339L501.022 329.603C502.192 328.426 502.849 326.834 502.849 325.175C502.849 323.515 502.192 321.923 501.022 320.747V320.621ZM357.558 390.343L386.86 419.645L345.844 431.359L357.558 390.343ZM398.858 413.898L363.306 378.346L452.154 289.529L487.675 325.049L398.858 413.898Z" fill="#0F91CB"></path><path d="M352.125 315.156C352.125 313.49 351.463 311.893 350.285 310.715C349.107 309.537 347.51 308.875 345.844 308.875H270.469C268.803 308.875 267.205 309.537 266.027 310.715C264.849 311.893 264.188 313.49 264.188 315.156C264.188 316.822 264.849 318.42 266.027 319.598C267.205 320.776 268.803 321.438 270.469 321.438H345.844C347.51 321.438 349.107 320.776 350.285 319.598C351.463 318.42 352.125 316.822 352.125 315.156Z" fill="#0F91CB"></path></svg>