<svg xmlns="http://www.w3.org/2000/svg" width="587" height="587" viewBox="0 0 587 587" fill="none"><path d="M156 137C230 88.4754 331 64.3333 366 78C373 80.3764 422.402 98.3624 406 152C369 273 375 352 382 379C399.317 445.792 366 511.371 263 513C10 517 -26.9999 257 156 137Z" fill="#0F91CB" fill-opacity="0.15"></path><path d="M458.954 341.546C454.141 341.546 450.932 344.755 450.932 349.568V453.864C450.932 458.678 447.722 461.886 442.909 461.886H154.091C149.277 461.886 146.068 458.677 146.068 453.864V349.568C146.068 344.754 142.859 341.546 138.046 341.546C133.233 341.546 130.023 344.755 130.023 349.568V453.864C130.023 467.503 140.453 477.932 154.091 477.932H442.909C456.548 477.932 466.978 467.503 466.978 453.864V349.568C466.978 344.754 463.768 341.546 458.954 341.546Z" fill="#0F91CB"></path><path d="M450.932 229.228H146.068C132.429 229.228 122 239.657 122 253.296V304.641C122 315.872 130.022 325.5 140.453 327.907L266.409 355.986V381.659C266.409 386.472 269.619 389.681 274.432 389.681H322.568C327.382 389.681 330.591 386.472 330.591 381.659V355.986L456.547 327.907C466.978 325.5 475 315.872 475 304.641V253.295C475 239.657 464.571 229.228 450.932 229.228ZM314.546 373.636H282.455V341.546H314.546V373.636ZM458.954 304.641C458.954 308.652 456.547 311.861 452.536 312.663L330.591 339.941V333.522C330.591 328.709 327.381 325.5 322.568 325.5H274.432C269.618 325.5 266.409 328.709 266.409 333.522V339.941L144.464 312.664C140.453 311.861 138.046 308.653 138.046 304.641V253.296C138.046 248.482 141.255 245.273 146.068 245.273H450.932C455.746 245.273 458.954 248.483 458.954 253.296V304.641V304.641Z" fill="#0F91CB"></path><path d="M338.614 173.068H258.386C244.747 173.068 234.318 183.497 234.318 197.136V205.159C234.318 209.972 237.528 213.181 242.341 213.181C247.154 213.181 250.363 209.972 250.363 205.159V197.136C250.363 192.322 253.572 189.114 258.386 189.114H338.613C343.427 189.114 346.636 192.323 346.636 197.136V205.159C346.636 209.972 349.845 213.181 354.658 213.181C359.472 213.181 362.68 209.972 362.68 205.159V197.136C362.682 183.497 352.253 173.068 338.614 173.068Z" fill="#0F91CB"></path></svg>