<svg xmlns="http://www.w3.org/2000/svg" width="587" height="587" viewBox="0 0 587 587" fill="none"><path d="M156 137C230 88.4754 331 64.3333 366 78C373 80.3764 422.401 98.3624 406 152C369 273 375 352 382 379C399.316 445.792 366 511.371 263 513C9.99992 517 -27.0001 257 156 137Z" fill="#0F91CB" fill-opacity="0.15"></path><path d="M476.267 247.263C473.932 245.682 470.966 245.363 468.348 246.41L388.997 278.15V254.298C388.997 239.578 377.021 227.602 362.301 227.602H216.697C201.977 227.602 190 239.578 190 254.298V381.702C190 396.422 201.977 408.398 216.697 408.398H362.301C377.021 408.398 388.997 396.422 388.997 381.702V357.85L468.348 389.59C469.367 389.998 470.437 390.198 471.503 390.198C473.178 390.198 474.841 389.703 476.267 388.737C478.602 387.157 480 384.522 480 381.702V254.298C480 251.479 478.602 248.843 476.267 247.263ZM372.005 381.702C372.005 387.053 367.652 391.406 362.301 391.406H216.697C211.346 391.406 206.992 387.053 206.992 381.702V254.298C206.992 248.947 211.346 244.594 216.697 244.594H362.301C367.652 244.594 372.005 248.947 372.005 254.298V381.702ZM463.008 369.153L388.997 339.549V296.451L463.008 266.847V369.153Z" fill="#0F91CB"></path></svg>