<?xml version="1.0" encoding="UTF-8" standalone="no"?>
<!DOCTYPE svg PUBLIC "-//W3C//DTD SVG 1.1//EN" "http://www.w3.org/Graphics/SVG/1.1/DTD/svg11.dtd">
<svg width="100%" height="100%" viewBox="0 0 48 47" version="1.1" xmlns="http://www.w3.org/2000/svg" xmlns:xlink="http://www.w3.org/1999/xlink" xml:space="preserve" xmlns:serif="http://www.serif.com/" style="fill-rule:evenodd;clip-rule:evenodd;stroke-linecap:round;stroke-linejoin:round;">
    <g transform="matrix(1,0,0,1,0.838786,0)">
        <rect id="Artboard1" x="-0.839" y="0" width="47.858" height="46.462" style="fill:none;"/>
        <g id="Artboard11" serif:id="Artboard1">
            <g transform="matrix(1,0,0,1,0.161214,0)">
                <path d="M14.017,44.68L14.017,38.258C14.017,38.258 4.395,34.419 4.395,20.992C4.395,7.565 15.326,2.482 24.107,2.482C32.02,2.482 40.736,7.757 40.736,16.988C40.736,18.456 44.883,23.513 44.672,26.461C44.718,26.856 44.654,27.256 44.484,27.615C44.238,27.954 43.849,28.162 43.43,28.179C42.247,28.226 40.681,28.168 40.681,28.168C40.681,28.168 40.837,35.124 39.19,36.767C37.903,38.057 36.036,38.322 32.368,38.301L32.368,44.68L14.017,44.68Z" style="fill:rgb(255,221,161);fill-rule:nonzero;"/>
            </g>
            <g transform="matrix(1,0,0,1,0.161214,0)">
                <path d="M15.326,33.671C18.873,33.671 21.748,26.688 21.748,18.076C21.748,9.464 18.871,2.482 15.326,2.482C11.778,2.482 8.904,9.464 8.904,18.076C8.904,26.688 11.78,33.671 15.326,33.671Z" style="fill:rgb(255,239,94);fill-rule:nonzero;"/>
            </g>
            <g transform="matrix(1,0,0,1,0.161214,0)">
                <path d="M18.537,23.637C25.995,19.332 30.604,13.35 28.832,10.278C27.057,7.206 19.573,8.208 12.115,12.515C4.657,16.818 0.047,22.799 1.82,25.871C3.594,28.943 11.079,27.94 18.537,23.633L18.537,23.637Z" style="fill:rgb(255,239,94);fill-rule:nonzero;"/>
            </g>
            <g transform="matrix(1,0,0,1,0.161214,0)">
                <path d="M28.832,25.872C30.603,22.802 25.993,16.82 18.535,12.515C11.077,8.208 3.593,7.208 1.82,10.276C0.045,13.348 4.655,19.33 12.113,23.635C19.573,27.942 27.057,28.943 28.83,25.872L28.832,25.872Z" style="fill:rgb(255,239,94);fill-rule:nonzero;"/>
            </g>
            <g transform="matrix(1,0,0,1,0.161214,0)">
                <path d="M24.414,12.829C23.69,11.575 21.537,11.344 18.843,11.994C18.059,9.336 16.777,7.582 15.326,7.582C13.874,7.582 12.592,9.336 11.808,11.994C9.112,11.344 6.962,11.575 6.236,12.829C5.51,14.083 6.388,16.066 8.304,18.076C6.388,20.088 5.51,22.067 6.236,23.325C6.962,24.583 9.112,24.81 11.808,24.16C12.592,26.828 13.876,28.572 15.326,28.572C16.775,28.572 18.059,26.82 18.843,24.16C21.537,24.81 23.69,24.579 24.414,23.325C25.137,22.071 24.261,20.088 22.346,18.076C24.261,16.066 25.139,14.087 24.414,12.829Z" style="fill:rgb(255,128,140);fill-rule:nonzero;"/>
            </g>
            <g transform="matrix(1,0,0,1,0.161214,0)">
                <path d="M24.107,2.482C32.02,2.482 40.736,7.757 40.736,16.988C40.736,18.456 44.883,23.513 44.672,26.461C44.718,26.856 44.654,27.256 44.484,27.615C44.238,27.954 43.849,28.162 43.43,28.179C42.247,28.226 40.681,28.168 40.681,28.168C40.681,28.168 40.837,35.124 39.19,36.767C37.903,38.057 36.036,38.322 32.368,38.301L32.368,44.68" style="fill:none;fill-rule:nonzero;stroke:rgb(29,40,53);stroke-width:1px;"/>
            </g>
            <g transform="matrix(1,0,0,1,0.161214,0)">
                <path d="M14.017,44.68L14.017,38.258" style="fill:none;fill-rule:nonzero;stroke:rgb(29,40,53);stroke-width:1px;"/>
            </g>
            <g transform="matrix(1,0,0,1,0.161214,0)">
                <path d="M15.326,33.671C18.873,33.671 21.748,26.688 21.748,18.076C21.748,9.464 18.871,2.482 15.326,2.482C11.778,2.482 8.904,9.464 8.904,18.076C8.904,26.688 11.78,33.671 15.326,33.671Z" style="fill:none;fill-rule:nonzero;stroke:rgb(29,40,53);stroke-width:1px;"/>
            </g>
            <g transform="matrix(1,0,0,1,0.161214,0)">
                <path d="M18.537,23.637C25.995,19.332 30.604,13.35 28.832,10.278C27.057,7.206 19.573,8.208 12.115,12.515C4.657,16.818 0.047,22.799 1.82,25.871C3.594,28.943 11.079,27.94 18.537,23.633L18.537,23.637Z" style="fill:none;fill-rule:nonzero;stroke:rgb(29,40,53);stroke-width:1px;"/>
            </g>
            <g transform="matrix(1,0,0,1,0.161214,0)">
                <path d="M28.832,25.872C30.603,22.802 25.993,16.82 18.535,12.515C11.077,8.208 3.593,7.208 1.82,10.276C0.045,13.348 4.655,19.33 12.113,23.635C19.573,27.942 27.057,28.943 28.83,25.872L28.832,25.872Z" style="fill:none;fill-rule:nonzero;stroke:rgb(29,40,53);stroke-width:1px;"/>
            </g>
            <g transform="matrix(1,0,0,1,0.161214,0)">
                <path d="M15.326,17.608C15.584,17.608 15.796,17.82 15.796,18.078" style="fill:none;fill-rule:nonzero;stroke:rgb(25,25,25);stroke-width:1px;"/>
            </g>
            <g transform="matrix(1,0,0,1,0.161214,0)">
                <path d="M14.856,18.076C14.856,17.818 15.068,17.606 15.326,17.606" style="fill:none;fill-rule:nonzero;stroke:rgb(25,25,25);stroke-width:1px;"/>
            </g>
            <g transform="matrix(1,0,0,1,0.161214,0)">
                <path d="M15.326,18.548C15.068,18.548 14.856,18.336 14.856,18.078" style="fill:none;fill-rule:nonzero;stroke:rgb(25,25,25);stroke-width:1px;"/>
            </g>
            <g transform="matrix(1,0,0,1,0.161214,0)">
                <path d="M15.796,18.076C15.796,18.077 15.796,18.077 15.796,18.078C15.796,18.335 15.584,18.546 15.328,18.546C15.327,18.546 15.326,18.546 15.326,18.546" style="fill:none;fill-rule:nonzero;stroke:rgb(25,25,25);stroke-width:1px;"/>
            </g>
        </g>
    </g>
</svg>
