<svg width="100%" height="100%" viewBox="0 0 50 50" version="1.1" xmlns="http://www.w3.org/2000/svg" xmlns:xlink="http://www.w3.org/1999/xlink" xml:space="preserve" style="fill-rule:evenodd;clip-rule:evenodd;stroke-linecap:round;stroke-linejoin:round;">
    <g transform="matrix(0.946937,0,0,0.920268,3.57915,4.12354)">
        <rect id="Artboard1" x="-3.78" y="-4.481" width="52.281" height="53.27" style="fill:none;"/>
        <g id="Artboard11">
            <g transform="matrix(1.05604,0,0,1.08664,-2.48524,-3.66289)">
                <path d="M39.718,1.544L4.468,1.544C2.856,1.544 1.53,2.87 1.53,4.481L1.53,26.023C1.53,27.634 2.856,28.96 4.468,28.96L39.718,28.96C41.329,28.96 42.655,27.634 42.655,26.023L42.655,4.481C42.655,2.87 41.329,1.544 39.718,1.544Z" style="fill:rgb(227,227,227);fill-rule:nonzero;"/>
            </g>
            <g transform="matrix(1.05604,0,0,1.08664,-2.48524,-3.66289)">
                <path d="M4.468,1.544C2.856,1.544 1.53,2.87 1.53,4.481L1.53,26.023C1.53,27.634 2.856,28.96 4.468,28.96L7.084,28.96L34.501,1.544L4.468,1.544Z" style="fill:white;fill-rule:nonzero;"/>
            </g>
            <g transform="matrix(1.05604,0,0,1.08664,-2.48524,-3.66289)">
                <path d="M19.155,28.96L4.468,28.96C2.856,28.96 1.53,27.634 1.53,26.023L1.53,4.481C1.53,2.87 2.856,1.544 4.468,1.544L39.718,1.544C41.329,1.544 42.655,2.87 42.655,4.481L42.655,19.169" style="fill:none;fill-rule:nonzero;stroke:rgb(29,40,53);stroke-width:1px;"/>
            </g>
            <g transform="matrix(1.05604,0,0,1.08664,-2.48524,-3.66289)">
                <path d="M41.807,2.417L22.093,18.19L2.376,2.417" style="fill:none;fill-rule:nonzero;stroke:rgb(29,40,53);stroke-width:1px;"/>
            </g>
            <g transform="matrix(1.05604,0,0,1.08664,-2.48524,-3.66289)">
                <path d="M34.636,46.623C41.082,46.623 46.386,41.319 46.386,34.873C46.386,28.427 41.082,23.123 34.636,23.123C28.19,23.123 22.886,28.427 22.886,34.873C22.886,41.319 28.19,46.623 34.636,46.623Z" style="fill:rgb(120,235,123);fill-rule:nonzero;"/>
            </g>
            <g transform="matrix(1.05604,0,0,1.08664,-2.48524,-3.66289)">
                <path d="M34.636,23.123C28.195,23.131 22.9,28.432 22.9,34.873C22.9,38.26 24.365,41.486 26.914,43.716L43.478,27.153C41.255,24.593 38.026,23.122 34.636,23.123Z" style="fill:rgb(201,247,202);fill-rule:nonzero;"/>
            </g>
            <g transform="matrix(1.05604,0,0,1.08664,-2.48524,-3.66289)">
                <path d="M34.636,46.623C41.082,46.623 46.386,41.319 46.386,34.873C46.386,28.427 41.082,23.123 34.636,23.123C28.19,23.123 22.886,28.427 22.886,34.873C22.886,41.319 28.19,46.623 34.636,46.623Z" style="fill:none;fill-rule:nonzero;stroke:rgb(29,40,53);stroke-width:1px;"/>
            </g>
            <g transform="matrix(1.05604,0,0,1.08664,-2.48524,-3.66289)">
                <path d="M39.872,31.465L34.193,39.052C33.916,39.421 33.48,39.639 33.019,39.639C32.629,39.639 32.256,39.484 31.98,39.208L29.043,36.271" style="fill:none;fill-rule:nonzero;stroke:rgb(29,40,53);stroke-width:1px;"/>
            </g>
        </g>
    </g>
</svg>