<svg width="100%" height="100%" viewBox="0 0 52 49" version="1.1" xmlns="http://www.w3.org/2000/svg" xmlns:xlink="http://www.w3.org/1999/xlink" xml:space="preserve" style="fill-rule:evenodd;clip-rule:evenodd;stroke-linecap:round;stroke-linejoin:round;">
                  <g transform="matrix(1,0,0,0.970882,1.75057,1.35175)">
                    <rect id="Artboard1" x="-1.751" y="-1.392" width="51.214" height="50.16" style="fill:none;"></rect>
                    <g id="Artboard11">
                      <g transform="matrix(1,0,0,1.02999,0.249425,-0.836674)">
                        <path d="M20.107,46.423C30.259,46.423 38.613,38.069 38.613,27.917C38.613,17.764 30.259,9.41 20.107,9.41C9.955,9.41 1.601,17.764 1.601,27.917C1.601,38.069 9.955,46.423 20.107,46.423Z" style="fill:rgb(227,227,227);fill-rule:nonzero;"></path>
                      </g>
                      <g transform="matrix(1,0,0,1.02999,0.249425,-0.836674)">
                        <path d="M20.103,46.423C9.951,46.423 1.597,38.069 1.597,27.917C1.597,17.764 9.951,9.41 20.103,9.41L20.103,46.423Z" style="fill:white;fill-rule:nonzero;"></path>
                      </g>
                      <g transform="matrix(1,0,0,1.02999,0.249425,-0.836674)">
                        <path d="M20.107,39.604C20.157,39.605 20.208,39.605 20.258,39.605C26.671,39.605 31.947,34.328 31.947,27.916C31.947,21.503 26.671,16.226 20.258,16.226C20.208,16.226 20.157,16.227 20.107,16.227C13.752,16.31 8.569,21.56 8.569,27.916C8.569,34.271 13.752,39.522 20.107,39.604Z" style="fill:rgb(102,225,255);fill-rule:nonzero;"></path>
                      </g>
                      <g transform="matrix(1,0,0,1.02999,0.249425,-0.836674)">
                        <path d="M20.105,39.604C20.054,39.605 20.004,39.605 19.954,39.605C13.541,39.605 8.264,34.328 8.264,27.916C8.264,21.503 13.541,16.226 19.954,16.226C20.004,16.226 20.054,16.227 20.105,16.227L20.105,39.604Z" style="fill:rgb(194,243,255);fill-rule:nonzero;"></path>
                      </g>
                      <g transform="matrix(1,0,0,1.02999,0.249425,-0.836674)">
                        <path d="M20.107,32.785C20.139,32.786 20.172,32.786 20.204,32.786C22.876,32.786 25.075,30.587 25.075,27.916C25.075,25.244 22.876,23.045 20.204,23.045C20.172,23.045 20.139,23.046 20.107,23.046C17.472,23.099 15.334,25.281 15.334,27.916C15.334,30.551 17.472,32.732 20.107,32.785Z" style="fill:rgb(255,128,140);fill-rule:nonzero;"></path>
                      </g>
                      <g transform="matrix(1,0,0,1.02999,0.249425,-0.836674)">
                        <path d="M20.103,32.785C20.07,32.786 20.038,32.786 20.005,32.786C17.333,32.786 15.135,30.587 15.135,27.916C15.135,25.244 17.333,23.045 20.005,23.045C20.038,23.045 20.07,23.046 20.103,23.046L20.103,32.785Z" style="fill:rgb(255,191,197);fill-rule:nonzero;"></path>
                      </g>
                      <g transform="matrix(1,0,0,1.02999,0.249425,-0.836674)">
                        <path d="M24,30.799C23.081,32.021 21.638,32.741 20.11,32.741C17.439,32.741 15.241,30.543 15.241,27.872C15.241,26.343 15.962,24.899 17.185,23.98" style="fill:none;fill-rule:nonzero;stroke:rgb(29,40,53);stroke-width:1px;"></path>
                      </g>
                      <g transform="matrix(1,0,0,1.02999,0.249425,-0.836674)">
                        <path d="M17.183,9.622C8.242,11.051 1.598,18.842 1.598,27.896C1.598,38.048 9.952,46.402 20.104,46.402C29.162,46.402 36.955,39.752 38.38,30.807" style="fill:none;fill-rule:nonzero;stroke:rgb(29,40,53);stroke-width:1px;"></path>
                      </g>
                      <g transform="matrix(1,0,0,1.02999,0.249425,-0.836674)">
                        <path d="M17.183,16.558C12.042,17.889 8.423,22.564 8.423,27.875C8.423,34.287 13.7,39.564 20.112,39.564C25.425,39.564 30.101,35.943 31.43,30.799" style="fill:none;fill-rule:nonzero;stroke:rgb(29,40,53);stroke-width:1px;"></path>
                      </g>
                      <g transform="matrix(1,0,0,1.02999,0.249425,-0.836674)">
                        <path d="M40.9,1.577L27.668,14.496L24.652,11.794C24.474,11.633 24.242,11.545 24.002,11.545C23.468,11.545 23.029,11.984 23.029,12.518C23.029,12.519 23.029,12.521 23.029,12.522L23.029,23.98C23.029,23.981 23.029,23.982 23.029,23.982C23.029,24.516 23.468,24.956 24.002,24.956C24.002,24.956 35.376,24.956 35.376,24.956C35.91,24.955 36.349,24.515 36.349,23.98C36.349,23.731 36.254,23.492 36.083,23.311L33.018,20.07L46.403,7.031L40.9,1.577Z" style="fill:rgb(255,239,94);fill-rule:nonzero;"></path>
                      </g>
                      <g transform="matrix(1,0,0,1.02999,0.249425,-0.836674)">
                        <path d="M23.322,24.678L43.677,4.325L40.9,1.577L27.67,14.496L24.654,11.794C24.475,11.634 24.244,11.545 24.004,11.545C23.469,11.545 23.029,11.986 23.029,12.521C23.029,12.521 23.029,12.522 23.029,12.522L23.029,23.98C23.029,24.243 23.135,24.494 23.322,24.678Z" style="fill:rgb(255,249,191);fill-rule:nonzero;"></path>
                      </g>
                      <g transform="matrix(1,0,0,1.02999,0.249425,-0.836674)">
                        <path d="M40.9,1.577L27.668,14.496L24.652,11.794C24.474,11.633 24.242,11.545 24.002,11.545C23.468,11.545 23.029,11.984 23.029,12.518C23.029,12.519 23.029,12.521 23.029,12.522L23.029,23.98C23.029,23.981 23.029,23.982 23.029,23.982C23.029,24.516 23.468,24.956 24.002,24.956C24.002,24.956 35.376,24.956 35.376,24.956C35.91,24.955 36.349,24.515 36.349,23.98C36.349,23.731 36.254,23.492 36.083,23.311L33.018,20.07L46.403,7.031" style="fill:none;fill-rule:nonzero;stroke:rgb(29,40,53);stroke-width:1px;"></path>
                      </g>
                    </g>
                  </g>
                </svg>